<?xml version="1.0" encoding="UTF-8" standalone="no"?>
<!-- Created with Inkscape (http://www.inkscape.org/) -->

<svg
   xmlns:dc="http://purl.org/dc/elements/1.1/"
   xmlns:cc="http://creativecommons.org/ns#"
   xmlns:rdf="http://www.w3.org/1999/02/22-rdf-syntax-ns#"
   xmlns:svg="http://www.w3.org/2000/svg"
   xmlns="http://www.w3.org/2000/svg"
   xmlns:sodipodi="http://sodipodi.sourceforge.net/DTD/sodipodi-0.dtd"
   xmlns:inkscape="http://www.inkscape.org/namespaces/inkscape"
   id="svg2"
   version="1.1"
   inkscape:version="0.91 r13725"
   xml:space="preserve"
   width="246"
   height="246"
   viewBox="0 0 246 246"
   sodipodi:docname="logo.svg"><metadata
     id="metadata8"><rdf:RDF><cc:Work
         rdf:about=""><dc:format>image/svg+xml</dc:format><dc:type
           rdf:resource="http://purl.org/dc/dcmitype/StillImage" /><dc:title /></cc:Work></rdf:RDF></metadata><defs
     id="defs6" /><sodipodi:namedview
     pagecolor="#ffffff"
     bordercolor="#666666"
     borderopacity="1"
     objecttolerance="10"
     gridtolerance="10"
     guidetolerance="10"
     inkscape:pageopacity="0"
     inkscape:pageshadow="2"
     inkscape:window-width="1247"
     inkscape:window-height="653"
     id="namedview4"
     showgrid="true"
     fit-margin-top="0"
     fit-margin-left="0"
     fit-margin-right="0"
     fit-margin-bottom="0"
     inkscape:zoom="1.2025397"
     inkscape:cx="58.451313"
     inkscape:cy="106.41346"
     inkscape:window-x="0"
     inkscape:window-y="0"
     inkscape:window-maximized="0"
     inkscape:current-layer="g10"
     showguides="true"
     inkscape:guide-bbox="true"
     inkscape:snap-bbox="false"
     inkscape:snap-bbox-midpoints="false"
     inkscape:snap-nodes="false"
     inkscape:snap-others="false"
     inkscape:snap-bbox-edge-midpoints="false"
     inkscape:bbox-nodes="true"><inkscape:grid
       type="xygrid"
       id="grid3341"
       dotted="false" /></sodipodi:namedview><g
     id="g10"
     inkscape:groupmode="layer"
     inkscape:label="about_blank"
     transform="matrix(1.25,0,0,1.25,-232.4906,-149.52329)"><rect
       inkscape:export-ydpi="218.69"
       inkscape:export-xdpi="218.69"
       rx="0"
       ry="20.623953"
       y="122.81068"
       x="189.18452"
       height="190.41592"
       width="190.41592"
       id="rect3337"
       style="opacity:1;fill:#65aeee;fill-opacity:1;stroke:#000000;stroke-width:6.38408136;stroke-linecap:round;stroke-linejoin:round;stroke-miterlimit:4;stroke-dasharray:none;stroke-opacity:1" /><g
       id="g44"
       transform="matrix(3.3878469,0,0,3.4099172,229.89128,164.11724)"
       style="fill:#000000;fill-opacity:1;stroke:none;stroke-opacity:1"
       inkscape:export-xdpi="218.69"
       inkscape:export-ydpi="218.69"><path
         d="M 16,32 C 8.8758135,31.996696 3.9507899,28.704006 1.2249279,22.121931 -1.5009344,15.539855 -0.34591007,9.7292118 4.6900005,4.6899996 9.0157528,0.13683319 14.218657,-1.3529253 20.298716,0.22072315 26.378773,1.7943716 30.205627,5.6212244 31.779276,11.701283 33.352924,17.781342 31.863165,22.984245 27.309998,27.309999 24.192205,30.44614 20.422207,32.009472 16,31.999998 L 16,32 Z M 16,1.6800001 C 12.045641,1.6800002 8.6703854,3.0780773 5.8742323,5.8742313 3.0780792,8.6703854 1.6800026,12.045641 1.6800027,16 c -1e-7,3.954357 1.3980768,7.329613 4.1942305,10.125769 C 8.6703873,28.921923 12.045643,30.32 16.000002,30.320002 19.954359,30.32 23.329615,28.921923 26.125769,26.125769 28.921923,23.329613 30.32,19.954357 30.320002,16 30.317244,12.046783 28.918192,8.6725025 26.122845,5.8771553 23.327497,3.081809 19.953217,1.6827574 16,1.6800007 l 0,-6e-7 z M 16,26.940001 C 12.983868,26.926334 10.40894,25.853615 8.2752171,23.72184 6.1414933,21.590063 5.0664215,19.016117 5.0500011,15.999999 c 3.868e-4,-0.559612 0.280387,-0.839418 0.8399997,-0.839418 0.5596137,0 0.8396139,0.279806 0.8400002,0.839419 -5e-7,2.558458 0.904551,4.742239 2.713655,6.551342 1.809104,1.809103 3.992885,2.713655 6.551345,2.713657 2.558458,-2e-6 4.742241,-0.904554 6.551344,-2.713657 C 24.355448,20.742239 25.26,18.558456 25.26,15.999999 25.26,15.44 25.540001,15.16 26.100002,15.16 c 0.56,0 0.84,0.28 0.84,0.84 -0.01367,3.016132 -1.086387,5.591061 -3.218162,7.724783 C 21.590063,25.858507 19.016117,26.93358 16,26.950001 l 0,-0.01 z M 13,8.5100002 C 12.791575,8.4055471 12.576876,8.3904753 12.355902,8.4647846 12.134927,8.5390949 11.97296,8.6808338 11.87,8.8900013 11.491491,9.6101007 10.898157,10.016767 10.089999,10.110001 9.2869291,10.009651 8.700263,9.5996504 8.3300009,8.8799992 8.1787395,8.5657701 7.9287395,8.4091034 7.5799994,8.4100008 7.02,8.4100018 6.7400002,8.6900024 6.7400002,9.250001 c 4.707e-4,0.1336603 0.03047,0.2603263 0.09,0.3799982 0.686542,1.3289818 1.7765422,2.0356488 3.2699988,2.1199998 C 11.596425,11.648283 12.689758,10.931617 13.38,9.6000004 13.59694,9.1168776 13.470274,8.7535448 13.000001,8.5100012 L 13,8.5100002 Z m 11.790001,0 C 24.581577,8.4055462 24.366879,8.3904743 24.145903,8.4647846 23.924929,8.5390949 23.762962,8.6808338 23.660002,8.8900013 23.281492,9.6101007 22.688158,10.016768 21.880001,10.110001 21.070646,10.018515 20.477312,9.6118479 20.1,8.8900003 19.94874,8.5757704 19.69874,8.4191036 19.35,8.4200001 c -0.23196,0 -0.42995,0.08201 -0.593969,0.2460308 -0.164019,0.1640196 -0.246029,0.36201 -0.246029,0.5939693 4.69e-4,0.1336603 0.03047,0.2603264 0.09,0.3799992 0.686543,1.3289816 1.776543,2.0356486 3.270001,2.1200006 1.496427,-0.101715 2.589762,-0.818381 3.280002,-2.1499984 0.104454,-0.2084246 0.119526,-0.4231243 0.04522,-0.6440993 -0.07431,-0.2209749 -0.216049,-0.3829422 -0.425217,-0.4859018 l 0.02,0.03 z"
         style="fill:#000000;fill-opacity:1;fill-rule:nonzero;stroke:none;stroke-opacity:1"
         id="path46"
         inkscape:connector-curvature="0" /></g></g></svg>